<?xml version="1.0" encoding="UTF-8"?>
<!DOCTYPE svg
  PUBLIC '-//W3C//DTD SVG 1.1//EN'
  'http://www.w3.org/Graphics/SVG/1.1/DTD/svg11.dtd'>
<svg version="1.1" xmlns="http://www.w3.org/2000/svg" width="37.000mm" height="23.000mm">
    <!--Autogenerated with python-barcode 0.11.0-->
    <g id="barcode_group">
        <rect width="100%" height="100%" style="fill:white"/>
        <rect x="6.500mm" y="1.000mm" width="0.330mm" height="15.000mm" style="fill:black;"/>
        <rect x="6.830mm" y="1.000mm" width="0.330mm" height="15.000mm" style="fill:white;"/>
        <rect x="7.160mm" y="1.000mm" width="0.330mm" height="15.000mm" style="fill:black;"/>
        <rect x="7.490mm" y="1.000mm" width="0.330mm" height="15.000mm" style="fill:white;"/>
        <rect x="7.820mm" y="1.000mm" width="0.990mm" height="15.000mm" style="fill:black;"/>
        <rect x="8.810mm" y="1.000mm" width="0.330mm" height="15.000mm" style="fill:white;"/>
        <rect x="9.140mm" y="1.000mm" width="0.660mm" height="15.000mm" style="fill:black;"/>
        <rect x="9.800mm" y="1.000mm" width="0.990mm" height="15.000mm" style="fill:white;"/>
        <rect x="10.790mm" y="1.000mm" width="0.330mm" height="15.000mm" style="fill:black;"/>
        <rect x="11.120mm" y="1.000mm" width="0.660mm" height="15.000mm" style="fill:white;"/>
        <rect x="11.780mm" y="1.000mm" width="0.330mm" height="15.000mm" style="fill:black;"/>
        <rect x="12.110mm" y="1.000mm" width="0.660mm" height="15.000mm" style="fill:white;"/>
        <rect x="12.770mm" y="1.000mm" width="0.330mm" height="15.000mm" style="fill:black;"/>
        <rect x="13.100mm" y="1.000mm" width="0.990mm" height="15.000mm" style="fill:white;"/>
        <rect x="14.090mm" y="1.000mm" width="0.330mm" height="15.000mm" style="fill:black;"/>
        <rect x="14.420mm" y="1.000mm" width="0.990mm" height="15.000mm" style="fill:white;"/>
        <rect x="15.410mm" y="1.000mm" width="0.330mm" height="15.000mm" style="fill:black;"/>
        <rect x="15.740mm" y="1.000mm" width="0.330mm" height="15.000mm" style="fill:white;"/>
        <rect x="16.070mm" y="1.000mm" width="0.660mm" height="15.000mm" style="fill:black;"/>
        <rect x="16.730mm" y="1.000mm" width="0.660mm" height="15.000mm" style="fill:white;"/>
        <rect x="17.390mm" y="1.000mm" width="0.330mm" height="15.000mm" style="fill:black;"/>
        <rect x="17.720mm" y="1.000mm" width="0.990mm" height="15.000mm" style="fill:white;"/>
        <rect x="18.710mm" y="1.000mm" width="0.330mm" height="15.000mm" style="fill:black;"/>
        <rect x="19.040mm" y="1.000mm" width="0.660mm" height="15.000mm" style="fill:white;"/>
        <rect x="19.700mm" y="1.000mm" width="0.660mm" height="15.000mm" style="fill:black;"/>
        <rect x="20.360mm" y="1.000mm" width="0.660mm" height="15.000mm" style="fill:white;"/>
        <rect x="21.020mm" y="1.000mm" width="0.330mm" height="15.000mm" style="fill:black;"/>
        <rect x="21.350mm" y="1.000mm" width="0.330mm" height="15.000mm" style="fill:white;"/>
        <rect x="21.680mm" y="1.000mm" width="0.330mm" height="15.000mm" style="fill:black;"/>
        <rect x="22.010mm" y="1.000mm" width="0.330mm" height="15.000mm" style="fill:white;"/>
        <rect x="22.340mm" y="1.000mm" width="0.330mm" height="15.000mm" style="fill:black;"/>
        <rect x="22.670mm" y="1.000mm" width="0.330mm" height="15.000mm" style="fill:white;"/>
        <rect x="23.000mm" y="1.000mm" width="0.330mm" height="15.000mm" style="fill:black;"/>
        <rect x="23.330mm" y="1.000mm" width="0.330mm" height="15.000mm" style="fill:white;"/>
        <rect x="23.660mm" y="1.000mm" width="0.990mm" height="15.000mm" style="fill:black;"/>
        <rect x="24.650mm" y="1.000mm" width="0.660mm" height="15.000mm" style="fill:white;"/>
        <rect x="25.310mm" y="1.000mm" width="0.330mm" height="15.000mm" style="fill:black;"/>
        <rect x="25.640mm" y="1.000mm" width="0.660mm" height="15.000mm" style="fill:white;"/>
        <rect x="26.300mm" y="1.000mm" width="0.330mm" height="15.000mm" style="fill:black;"/>
        <rect x="26.630mm" y="1.000mm" width="0.990mm" height="15.000mm" style="fill:white;"/>
        <rect x="27.620mm" y="1.000mm" width="0.990mm" height="15.000mm" style="fill:black;"/>
        <rect x="28.610mm" y="1.000mm" width="0.660mm" height="15.000mm" style="fill:white;"/>
        <rect x="29.270mm" y="1.000mm" width="0.330mm" height="15.000mm" style="fill:black;"/>
        <rect x="29.600mm" y="1.000mm" width="0.330mm" height="15.000mm" style="fill:white;"/>
        <rect x="29.930mm" y="1.000mm" width="0.330mm" height="15.000mm" style="fill:black;"/>
        <rect x="30.260mm" y="1.000mm" width="0.330mm" height="15.000mm" style="fill:white;"/>
        <rect x="30.590mm" y="1.000mm" width="0.330mm" height="15.000mm" style="fill:black;"/>
        <text x="18.710mm" y="21.000mm" style="fill:black;font-size:10pt;text-anchor:middle;">9787971480</text>
    </g>
</svg>
